<svg width="12" height="10" viewBox="0 0 12 10" fill="none" xmlns="http://www.w3.org/2000/svg">
<path d="M7.86375 0.705933H4.13625L4.34407 0.187495C4.37688 0.10437 4.45782 0.0496826 4.54532 0.0496826H7.45469C7.54219 0.0496826 7.62313 0.10437 7.65594 0.187495L7.86375 0.705933ZM10.7972 6.38687C10.7819 6.20312 10.7578 6.01937 10.7206 5.83781C10.6681 5.57531 10.3859 5.41999 10.1366 5.51406L8.59438 6.09812C8.14157 6.26875 8.28594 6.96875 8.77157 6.9425L10.3838 6.85937C10.442 6.85573 10.499 6.8406 10.5513 6.81483C10.6037 6.78907 10.6505 6.75318 10.6889 6.70926C10.7274 6.66533 10.7567 6.61422 10.7753 6.55889C10.7939 6.50356 10.8013 6.44509 10.7972 6.38687ZM4.21938 8.20031H7.78063C8.06282 8.20031 8.06282 7.76281 7.78063 7.76281H4.21938C3.93719 7.76281 3.93719 8.20031 4.21938 8.20031ZM0.531254 6.76312C0.531254 6.00209 0.693129 5.24937 1.00594 4.55834L1.08469 4.38553L0.631879 4.09678C0.600872 4.07717 0.575365 4.05 0.557761 4.01781C0.540156 3.98563 0.531034 3.94949 0.531254 3.91281V3.72468C0.531254 3.60437 0.629691 3.50593 0.750004 3.50593H1.49813C1.66657 3.17125 1.85688 2.8475 2.07125 2.53906L2.73407 1.605C2.83513 1.46234 2.96891 1.34599 3.12419 1.26569C3.27948 1.18538 3.45174 1.14346 3.62657 1.14343H8.37344C8.72782 1.14343 9.0625 1.31625 9.26594 1.605L9.92875 2.53906C10.1431 2.8475 10.3334 3.17125 10.5019 3.50593H11.25C11.3703 3.50593 11.4688 3.60437 11.4688 3.72468V3.91281C11.4688 3.98718 11.4316 4.05718 11.3681 4.09656L10.9153 4.38531L10.9941 4.55812C11.3072 5.25104 11.469 6.00274 11.4688 6.76312V8.41906C11.4688 8.53937 11.3703 8.63781 11.25 8.63781H0.750004C0.629691 8.63781 0.531254 8.53937 0.531254 8.41906V6.76312ZM1.20282 6.38687C1.19866 6.4451 1.20608 6.50358 1.22465 6.55892C1.24323 6.61427 1.27258 6.66538 1.31102 6.70932C1.34947 6.75325 1.39623 6.78913 1.44862 6.81489C1.50101 6.84064 1.55799 6.85576 1.61625 6.85937L3.22844 6.9425C3.71188 6.96875 3.86063 6.26875 3.40563 6.09812L1.86344 5.51406C1.61407 5.41999 1.33188 5.57531 1.27938 5.83781C1.24219 6.01937 1.21813 6.20312 1.20282 6.38687ZM10.0775 4.26281L8.55282 2.11031C8.51125 2.05343 8.44563 2.01843 8.37344 2.01843H3.62657C3.55438 2.01843 3.48875 2.05343 3.44719 2.11031L1.9225 4.26281H10.0775ZM2.28125 9.07531V9.73156C2.28125 9.85187 2.18282 9.95031 2.0625 9.95031H1.1875C1.06719 9.95031 0.968754 9.85187 0.968754 9.73156V9.07531H2.28125ZM11.0313 9.07531V9.73156C11.0313 9.85187 10.9328 9.95031 10.8125 9.95031H9.9375C9.81719 9.95031 9.71875 9.85187 9.71875 9.73156V9.07531H11.0313Z" fill="white"/>
</svg>
