<svg width="20" height="20" viewBox="0 0 20 18" fill="none" xmlns="http://www.w3.org/2000/svg">
<path d="M19.7873 7.1276L10.307 0.186312C10.218 0.121095 10.1104 0.0859375 10.0001 0.0859375C9.88968 0.0859375 9.78217 0.121095 9.69311 0.186312L0.212718 7.1276C-0.0188446 7.29717 -0.0691571 7.62233 0.100413 7.85389C0.269984 8.08545 0.595179 8.13569 0.826702 7.9662L10 1.24963L19.1733 7.96616C19.2622 8.03146 19.3696 8.06663 19.4799 8.06655C19.6399 8.06655 19.7978 7.99291 19.8996 7.85385C20.0692 7.62233 20.0189 7.29717 19.7873 7.1276Z" fill="white"/>
<path d="M17.2753 8.08398C16.9883 8.08398 16.7556 8.31664 16.7556 8.60363V16.8751H12.5985V12.36C12.5985 10.9272 11.4328 9.76156 10.0001 9.76156C8.56735 9.76156 7.40165 10.9273 7.40165 12.36V16.8751H3.2445V8.60367C3.2445 8.31668 3.0118 8.08402 2.72485 8.08402C2.4379 8.08402 2.2052 8.31668 2.2052 8.60367V17.3948C2.2052 17.6818 2.4379 17.9145 2.72485 17.9145H7.92129C8.19458 17.9145 8.41821 17.7033 8.43891 17.4353C8.44016 17.4231 8.44094 17.4098 8.44094 17.3948V12.36C8.44094 11.5003 9.14036 10.8009 10.0001 10.8009C10.8598 10.8009 11.5592 11.5004 11.5592 12.36V17.3948C11.5592 17.4098 11.56 17.4228 11.5613 17.4348C11.5817 17.703 11.8054 17.9145 12.0789 17.9145H17.2753C17.5623 17.9145 17.795 17.6818 17.795 17.3948V8.60367C17.7949 8.31664 17.5623 8.08398 17.2753 8.08398Z" fill="white"/>
</svg>
