<svg width="36" height="36" viewBox="0 0 36 36" fill="none" xmlns="http://www.w3.org/2000/svg">
<rect width="36" height="36" rx="5" fill="#FFC11E"/>
<path d="M20.6625 11.8656H15.3375L15.6344 11.125C15.6813 11.0063 15.7969 10.9281 15.9219 10.9281H20.0781C20.2031 10.9281 20.3188 11.0063 20.3656 11.125L20.6625 11.8656ZM24.8531 19.9813C24.8313 19.7188 24.7969 19.4563 24.7438 19.1969C24.6688 18.8219 24.2656 18.6 23.9094 18.7344L21.7063 19.5688C21.0594 19.8125 21.2656 20.8125 21.9594 20.775L24.2625 20.6563C24.3457 20.6511 24.4271 20.6294 24.5019 20.5926C24.5767 20.5558 24.6435 20.5046 24.6984 20.4418C24.7534 20.3791 24.7953 20.306 24.8218 20.227C24.8484 20.148 24.859 20.0644 24.8531 19.9813ZM15.4563 22.5719H20.5438C20.9469 22.5719 20.9469 21.9469 20.5438 21.9469H15.4563C15.0531 21.9469 15.0531 22.5719 15.4563 22.5719ZM10.1875 20.5188C10.1875 19.4316 10.4188 18.3563 10.8656 17.3691L10.9781 17.1222L10.3313 16.7097C10.287 16.6817 10.2505 16.6429 10.2254 16.5969C10.2002 16.5509 10.1872 16.4993 10.1875 16.4469V16.1781C10.1875 16.0063 10.3281 15.8656 10.5 15.8656H11.5688C11.8094 15.3875 12.0813 14.925 12.3875 14.4844L13.3344 13.15C13.4788 12.9462 13.6699 12.78 13.8917 12.6653C14.1135 12.5506 14.3596 12.4907 14.6094 12.4906H21.3906C21.8969 12.4906 22.375 12.7375 22.6656 13.15L23.6125 14.4844C23.9188 14.925 24.1906 15.3875 24.4313 15.8656H25.5C25.6719 15.8656 25.8125 16.0063 25.8125 16.1781V16.4469C25.8125 16.5531 25.7594 16.6531 25.6688 16.7094L25.0219 17.1219L25.1344 17.3688C25.5817 18.3586 25.8129 19.4325 25.8125 20.5188V22.8844C25.8125 23.0563 25.6719 23.1969 25.5 23.1969H10.5C10.3281 23.1969 10.1875 23.0563 10.1875 22.8844V20.5188ZM11.1469 19.9813C11.1409 20.0644 11.1515 20.148 11.1781 20.227C11.2046 20.3061 11.2465 20.3791 11.3015 20.4419C11.3564 20.5047 11.4232 20.5559 11.498 20.5927C11.5729 20.6295 11.6543 20.6511 11.7375 20.6563L14.0406 20.775C14.7313 20.8125 14.9438 19.8125 14.2938 19.5688L12.0906 18.7344C11.7344 18.6 11.3313 18.8219 11.2563 19.1969C11.2031 19.4563 11.1688 19.7188 11.1469 19.9813ZM23.825 16.9469L21.6469 13.8719C21.5875 13.7906 21.4938 13.7406 21.3906 13.7406H14.6094C14.5063 13.7406 14.4125 13.7906 14.3531 13.8719L12.175 16.9469H23.825ZM12.6875 23.8219V24.7594C12.6875 24.9313 12.5469 25.0719 12.375 25.0719H11.125C10.9531 25.0719 10.8125 24.9313 10.8125 24.7594V23.8219H12.6875ZM25.1875 23.8219V24.7594C25.1875 24.9313 25.0469 25.0719 24.875 25.0719H23.625C23.4531 25.0719 23.3125 24.9313 23.3125 24.7594V23.8219H25.1875Z" fill="white"/>
</svg>
