<svg width="10" height="10" viewBox="0 0 10 10" fill="none" xmlns="http://www.w3.org/2000/svg">
<path d="M2.77454 4.27083C3.02194 4.29874 3.27242 4.277 3.51132 4.20689C3.75021 4.13677 3.97271 4.01969 4.16579 3.8625C4.55954 3.54458 4.80746 3.0925 4.86287 2.58792C4.91829 2.08333 4.77245 1.59042 4.45454 1.19667C4.21881 0.904999 3.90195 0.689706 3.54397 0.577965C3.18599 0.466225 2.80292 0.463045 2.44313 0.568829C2.08334 0.674613 1.76296 0.884617 1.52242 1.17233C1.28188 1.46005 1.13198 1.81258 1.09162 2.18542C1.06378 2.43282 1.08555 2.68328 1.15566 2.92217C1.22578 3.16105 1.34282 3.38356 1.49995 3.57667C1.82079 3.97042 2.27287 4.21833 2.77454 4.27083ZM1.96371 2.27875C1.99287 2.0075 2.12704 1.76542 2.33704 1.59333C2.52079 1.44458 2.74245 1.36875 2.97579 1.36875C3.01371 1.36875 3.04871 1.37167 3.08662 1.37458C3.35787 1.40375 3.59996 1.53792 3.77204 1.75083C3.94412 1.96375 4.01996 2.22917 3.99079 2.50042C3.96162 2.77167 3.82746 3.01375 3.61746 3.18583C3.40746 3.35792 3.13912 3.43375 2.86787 3.40458C2.59662 3.37542 2.35454 3.24125 2.18246 3.02833C2.01329 2.81542 1.93454 2.55 1.96371 2.27875ZM8.66329 6.42333C8.42756 6.13167 8.1107 5.91637 7.75272 5.80463C7.39474 5.69289 7.01167 5.68971 6.65188 5.7955C6.29209 5.90128 5.97171 6.11128 5.73117 6.399C5.49063 6.68672 5.34073 7.03924 5.30037 7.41208C5.24496 7.91667 5.39079 8.40958 5.7087 8.80333C6.02662 9.19708 6.4787 9.445 6.98329 9.50042C7.23069 9.52833 7.48117 9.50659 7.72007 9.43647C7.95896 9.36635 8.18146 9.24927 8.37454 9.09208C9.18829 8.43292 9.31954 7.23708 8.66329 6.42333ZM7.8262 8.40667C7.61329 8.57875 7.34787 8.65458 7.07662 8.62542C6.80537 8.59625 6.56329 8.46208 6.39121 8.24917C6.21912 8.03625 6.14329 7.77083 6.17246 7.49958C6.20162 7.22833 6.33579 6.98625 6.54579 6.81417C6.73537 6.6625 6.95996 6.58958 7.18454 6.58958C7.48204 6.58958 7.77954 6.72083 7.98079 6.96875C8.33371 7.40917 8.2637 8.05375 7.8262 8.40667ZM8.96662 1.68375C8.81495 1.49417 8.54079 1.465 8.35121 1.61667L1.08287 7.47333C0.893288 7.625 0.864122 7.89917 1.01579 8.08875C1.10329 8.19667 1.22871 8.25208 1.35704 8.25208C1.45329 8.25208 1.54954 8.22 1.6312 8.15583L8.89954 2.30208C9.08912 2.1475 9.11829 1.87333 8.96662 1.68375Z" fill="white"/>
</svg>
