<svg width="110" height="146" viewBox="0 0 110 146" fill="none" xmlns="http://www.w3.org/2000/svg">
<path d="M108.798 54.1418C109.733 45.105 110.216 35.8905 108.502 26.9098C106.904 18.5567 103.198 10.0378 96.4372 4.5944C93.2729 2.04584 89.3332 0.204716 85.2217 0.201756C81.3737 0.201756 77.7773 1.84456 75.0275 4.51448C68.2491 11.0886 67.9945 21.0402 69.2673 29.7899C70.5934 38.9334 74.2993 50.5721 66.9319 58.2059C63.4332 61.829 58.3479 62.2138 53.6119 61.6306C49.2636 61.0949 43.7847 60.2128 42.3076 55.3939C41.5824 53.0259 41.5913 50.4507 41.4552 47.9939C41.3101 45.4069 41.1858 42.8198 41.0023 40.2358C40.6471 35.2038 40.0699 30.1274 38.729 25.2374C36.6185 17.5414 32.2407 9.878 25.2521 5.66296C21.5936 3.47256 17.05 1.96 12.8438 3.44C9.13788 4.71576 6.32588 7.9096 4.79556 11.432C2.95444 15.6826 2.72356 20.383 2.61404 24.9503C2.49564 30.2428 2.96628 35.5649 3.2386 40.8455C3.66484 49.0566 3.99044 57.2706 4.01116 65.4905C4.03484 75.2585 3.653 85.0679 2.53116 94.7945C1.93916 99.7673 0.829159 104.702 0.488759 109.692C0.157239 114.55 0.43252 119.549 1.581 124.288C3.41028 131.871 8.23212 139.008 15.0993 142.838C23.636 147.595 33.2737 145.419 42.3313 143.747C47.6601 142.726 53.0909 142.338 58.5107 142.593C63.8801 142.868 69.2229 143.549 74.5983 143.706C82.5311 143.939 90.9582 142.818 97.6093 138.144C100.738 135.944 103.293 133.002 104.77 129.453C106.546 125.179 106.753 120.467 106.546 115.896C106.315 110.734 105.77 105.596 105.601 100.424C105.42 94.8004 105.471 89.1764 105.755 83.5524C106.273 73.6867 107.783 63.9483 108.798 54.1418ZM105.151 69.1106C103.971 79.1366 103.511 89.2344 103.775 99.3263C103.917 104.358 104.367 109.352 104.678 114.366C104.959 119.102 104.947 124.06 103.035 128.497C99.9033 135.752 92.3316 139.541 84.9287 140.968C75.3827 142.806 65.6739 140.728 56.0835 140.473C51.1373 140.343 46.3155 140.876 41.467 141.779C36.6185 142.681 31.7316 143.791 26.7765 143.765C18.0771 143.72 10.7067 139.177 6.37028 131.691C1.63428 123.492 1.51884 113.454 3.061 104.355C4.615 95.1793 5.35796 85.8523 5.66284 76.5313C6.15716 61.3909 5.20108 46.3215 4.54692 31.2048C4.46108 29.1979 4.3782 27.1851 4.4226 25.1753C4.54692 20.463 4.78668 15.4694 7.11324 11.2455C9.22964 7.39752 13.0806 4.51744 17.6183 4.9052C26.2319 5.64816 32.6018 13.7852 35.5736 21.2296C39.2144 30.3286 39.1612 40.3542 39.7739 49.986C40.0225 53.9228 40.5524 58.049 43.9416 60.5828C47.1147 62.9508 51.6849 63.5428 55.527 63.8388C59.6207 64.1348 63.8476 63.5428 67.1213 60.8788C70.0813 58.4812 71.8573 54.8937 72.6536 51.2262C74.7907 41.5411 70.3773 31.7198 70.4336 22.0022C70.4809 13.803 74.474 3.82184 83.6085 2.38328C92.5152 0.986156 99.6961 8.93968 103.216 16.168C111.16 32.525 107.146 51.8774 105.151 69.1106Z" fill="#1E1E1E"/>
<path d="M84.1651 9.86023C79.7784 10.5736 76.404 13.7082 75.4953 18.0742C74.3113 23.6982 77.0611 29.4347 78.5411 34.745C79.6748 39.1317 79.1006 43.9594 78.4612 48.3787C78.1652 50.5099 77.7656 52.6293 77.3246 54.7368C76.9013 56.7437 76.8243 58.6203 77.6442 60.5473C79.5742 65.0702 84.467 66.0085 88.9218 65.973C90.9406 65.9552 93.1458 65.8279 94.7886 64.5107C96.7481 62.9449 97.5384 60.0707 98.3169 57.7797C101.65 47.9362 102.168 37.3574 99.8117 27.2354C98.0002 19.4654 94.1995 8.23223 84.1651 9.86023ZM97.5828 53.609C96.9791 55.8553 96.2124 58.0545 95.2888 60.1891C94.2646 62.5423 92.7462 63.6553 90.1828 63.8832C86.1542 64.2384 80.1543 63.8566 78.9526 59.1058C78.4582 57.1551 79.2042 55.1009 79.5653 53.1858C79.959 51.0842 80.2964 48.9707 80.5421 46.8454C81.0127 42.7636 81.291 38.4657 80.2461 34.446C78.325 27.5492 73.2398 16.094 82.7325 12.4206C85.805 11.2366 89.573 11.5652 92.0387 13.874C95.2947 16.9169 96.7066 22.1087 97.7841 26.2882C100.078 35.2597 100.009 44.6724 97.5828 53.609ZM34.9551 56.0214C35.2778 51.469 34.5318 46.6471 33.8866 42.1538C33.2413 37.6606 32.4628 33.0726 31.4002 28.6207C30.4707 24.7076 29.1328 20.7738 26.7056 17.5148C24.681 14.8005 21.2562 12.2578 17.6776 13.208C13.948 14.2203 12.0802 17.944 11.4882 21.496C10.6979 26.0988 10.8548 30.9917 11.0679 35.6359C11.3195 41.1386 11.9559 46.6146 12.693 52.0728C13.0186 54.4793 13.2672 56.9302 13.7349 59.3159C14.0072 60.6953 14.4986 62.1309 15.4635 63.1817C15.5204 63.2444 15.5828 63.3019 15.65 63.3534C16.9435 64.3716 18.4946 64.271 20.0545 64.1526C22.3224 63.9951 24.5659 63.5871 26.7441 62.936C28.6947 62.344 30.746 61.6129 32.4776 60.5177C34.1234 59.4728 34.8219 57.904 34.9551 56.0214ZM33.1347 55.7521C32.8535 58.2888 30.7667 59.1294 28.6681 60.0086C26.6199 60.8576 24.4789 61.4626 22.2893 61.8112C20.7323 62.0628 17.947 62.7347 16.5321 61.7668C15.9105 61.0238 15.6441 59.9908 15.4517 59.0495C15.1794 57.6672 14.9041 55.243 14.6525 53.4255C14.096 49.4029 13.5869 45.3714 13.2376 41.325C12.87 37.2906 12.7139 33.2398 12.7699 29.189C12.841 25.4446 12.687 20.7382 15.0491 17.5858C17.4112 14.4334 21.2148 14.466 24.0238 17.0738C26.6405 19.498 28.0672 23.0944 29.0558 26.4481C31.2166 33.8777 32.3592 41.8667 32.9453 49.5686C33.0962 51.5874 33.3567 53.76 33.1347 55.7521ZM49.3111 76.0281C44.5303 77.5598 40.3555 80.5624 37.3825 84.6076C34.4095 88.6527 32.7903 93.5336 32.7558 98.5537C32.6717 104.113 34.6584 109.506 38.3295 113.682C41.775 117.64 46.727 120.973 52.1409 120.973C52.1685 120.974 52.1961 120.974 52.2238 120.973H52.277C57.9489 121.203 63.5997 120.15 68.8086 117.894C72.7188 116.21 75.5042 112.981 77.1736 109.112C80.7582 100.824 80.5184 89.647 74.1278 82.8005C67.968 76.2027 57.9602 73.2634 49.3111 76.0281ZM76.4129 105.492C75.1963 109.562 72.7928 113.508 68.9182 115.506C63.821 118.128 57.8241 119.17 52.1379 118.948C52.1083 118.947 52.0787 118.947 52.0491 118.948H52.0018C43.0448 118.948 35.6418 110.024 34.7065 101.635C34.192 97.0074 35.1438 92.3351 37.4275 88.2775C39.7113 84.2199 43.2116 80.9819 47.4345 79.0206C55.1778 75.4272 64.4249 76.9042 70.9961 82.247C74.0242 84.7068 76.3862 88.0871 77.1233 91.9618C77.951 96.4651 77.7076 101.1 76.4129 105.492Z" fill="#1E1E1E"/>
<path d="M48.5947 97.272C48.4763 98.3553 50.2346 99.344 50.3707 98.0061C50.6064 95.8995 50.4874 93.7684 50.0185 91.7013C49.7432 90.4729 48.0057 90.6534 48.3047 91.9973C48.693 93.7273 48.791 95.5098 48.5947 97.272ZM60.5827 96.8398C60.4762 97.9202 62.2374 98.9118 62.3587 97.5709C62.5704 95.4651 62.4253 93.3386 61.9295 91.2809C61.6335 90.0614 59.896 90.2361 60.2187 91.5769C60.633 93.2986 60.756 95.0775 60.5827 96.8398ZM56.0155 102.659C52.4427 102.727 49.2637 104.941 47.7038 108.103C47.2272 109.068 48.7871 110.432 49.3495 109.287C52.0816 103.748 60.0263 103.071 63.2201 108.576C63.892 109.728 65.3868 108.911 64.7001 107.75C62.9211 104.672 59.6296 102.6 56.0155 102.659Z" fill="#1E1E1E"/>
</svg>
