<svg width="150" height="37" viewBox="0 0 150 37" fill="none" xmlns="http://www.w3.org/2000/svg">
<path d="M10.7614 29H0.6875V2.81818H10.6591C13.3523 2.81818 15.679 3.34233 17.6392 4.39062C19.608 5.4304 21.125 6.9304 22.1903 8.89062C23.2642 10.8423 23.8011 13.1818 23.8011 15.9091C23.8011 18.6364 23.2685 20.9801 22.2031 22.9403C21.1378 24.892 19.6293 26.392 17.6776 27.4403C15.7259 28.4801 13.4205 29 10.7614 29ZM7.79545 22.9659H10.5057C11.8011 22.9659 12.9048 22.7571 13.8168 22.3395C14.7372 21.9219 15.4361 21.2017 15.9134 20.179C16.3991 19.1562 16.642 17.733 16.642 15.9091C16.642 14.0852 16.3949 12.6619 15.9006 11.6392C15.4148 10.6165 14.6989 9.89631 13.7528 9.47869C12.8153 9.06108 11.6648 8.85227 10.3011 8.85227H7.79545V22.9659ZM36.6012 29.358C34.5046 29.358 32.6978 28.9574 31.1808 28.1562C29.6722 27.3466 28.5089 26.1875 27.6907 24.679C26.881 23.1619 26.4762 21.3466 26.4762 19.233C26.4762 17.2045 26.8853 15.4318 27.7035 13.9148C28.5217 12.3977 29.6765 11.2173 31.168 10.3736C32.6594 9.52983 34.4194 9.10795 36.4478 9.10795C37.9308 9.10795 39.2731 9.33807 40.4748 9.7983C41.6765 10.2585 42.7035 10.9276 43.5558 11.8054C44.408 12.6747 45.0643 13.7315 45.5245 14.9759C45.9847 16.2202 46.2148 17.6222 46.2148 19.1818V20.8182H28.6751V16.9318H39.7205C39.712 16.3693 39.5671 15.875 39.2859 15.4489C39.0131 15.0142 38.6424 14.6776 38.1737 14.4389C37.7134 14.1918 37.1893 14.0682 36.6012 14.0682C36.0302 14.0682 35.506 14.1918 35.0288 14.4389C34.5515 14.6776 34.168 15.0099 33.8782 15.4361C33.5969 15.8622 33.4478 16.3608 33.4308 16.9318V21.125C33.4308 21.7557 33.5629 22.3182 33.8271 22.8125C34.0913 23.3068 34.4705 23.6946 34.9648 23.9759C35.4592 24.2571 36.0558 24.3977 36.7546 24.3977C37.2404 24.3977 37.6836 24.3295 38.0842 24.1932C38.4933 24.0568 38.8427 23.8608 39.1325 23.6051C39.4222 23.3409 39.6353 23.0256 39.7717 22.6591H46.2148C45.9933 24.0227 45.4691 25.2074 44.6424 26.2131C43.8157 27.2102 42.7205 27.9858 41.3569 28.5398C40.0018 29.0852 38.4165 29.358 36.6012 29.358ZM56.1513 2.81818V29H49.0945V2.81818H56.1513ZM59.7468 29V9.36364H66.8036V29H59.7468ZM63.2752 7.31818C62.3207 7.31818 61.5025 7.00284 60.8207 6.37216C60.1388 5.74148 59.7979 4.98295 59.7979 4.09659C59.7979 3.21023 60.1388 2.4517 60.8207 1.82102C61.5025 1.19034 62.3207 0.875 63.2752 0.875C64.2383 0.875 65.0565 1.19034 65.7298 1.82102C66.4116 2.4517 66.7525 3.21023 66.7525 4.09659C66.7525 4.98295 66.4116 5.74148 65.7298 6.37216C65.0565 7.00284 64.2383 7.31818 63.2752 7.31818ZM90.1889 9.36364L83.5923 29H75.4105L68.8139 9.36364H76.2287L79.3991 22.3523H79.6037L82.7741 9.36364H90.1889ZM101.007 29.358C98.9109 29.358 97.104 28.9574 95.587 28.1562C94.0785 27.3466 92.9151 26.1875 92.0969 24.679C91.2873 23.1619 90.8825 21.3466 90.8825 19.233C90.8825 17.2045 91.2915 15.4318 92.1097 13.9148C92.9279 12.3977 94.0827 11.2173 95.5742 10.3736C97.0657 9.52983 98.8256 9.10795 100.854 9.10795C102.337 9.10795 103.679 9.33807 104.881 9.7983C106.083 10.2585 107.11 10.9276 107.962 11.8054C108.814 12.6747 109.471 13.7315 109.931 14.9759C110.391 16.2202 110.621 17.6222 110.621 19.1818V20.8182H93.0813V16.9318H104.127C104.118 16.3693 103.973 15.875 103.692 15.4489C103.419 15.0142 103.049 14.6776 102.58 14.4389C102.12 14.1918 101.596 14.0682 101.007 14.0682C100.436 14.0682 99.9123 14.1918 99.435 14.4389C98.9577 14.6776 98.5742 15.0099 98.2844 15.4361C98.0032 15.8622 97.854 16.3608 97.837 16.9318V21.125C97.837 21.7557 97.9691 22.3182 98.2333 22.8125C98.4975 23.3068 98.8768 23.6946 99.3711 23.9759C99.8654 24.2571 100.462 24.3977 101.161 24.3977C101.647 24.3977 102.09 24.3295 102.49 24.1932C102.9 24.0568 103.249 23.8608 103.539 23.6051C103.828 23.3409 104.042 23.0256 104.178 22.6591H110.621C110.4 24.0227 109.875 25.2074 109.049 26.2131C108.222 27.2102 107.127 27.9858 105.763 28.5398C104.408 29.0852 102.823 29.358 101.007 29.358ZM113.501 29V9.36364H120.353V13.0966H120.558C120.915 11.7159 121.482 10.706 122.258 10.0668C123.042 9.42756 123.958 9.10795 125.006 9.10795C125.313 9.10795 125.616 9.13352 125.914 9.18466C126.221 9.22727 126.515 9.29119 126.796 9.37642V15.3977C126.447 15.2784 126.016 15.1889 125.505 15.1293C124.994 15.0696 124.555 15.0398 124.188 15.0398C123.498 15.0398 122.876 15.1974 122.322 15.5128C121.776 15.8196 121.346 16.2543 121.031 16.8168C120.715 17.3707 120.558 18.0227 120.558 18.7727V29H113.501ZM134.003 36.3636C133.194 36.3636 132.422 36.2997 131.689 36.1719C130.956 36.0526 130.313 35.8864 129.759 35.6733L131.293 30.6619C131.873 30.8665 132.401 30.9986 132.878 31.0582C133.364 31.1179 133.777 31.0838 134.118 30.956C134.468 30.8281 134.719 30.5852 134.873 30.2273L135.026 29.8693L128.123 9.36364H135.486L138.657 22.9659H138.861L142.083 9.36364H149.498L142.338 30.6364C141.98 31.7188 141.461 32.6903 140.779 33.5511C140.105 34.4205 139.219 35.1065 138.12 35.6094C137.02 36.1122 135.648 36.3636 134.003 36.3636Z" fill="#FF4C34"/>
</svg>
