<svg width="295" height="362" viewBox="0 0 295 362" fill="none" xmlns="http://www.w3.org/2000/svg">
<g clip-path="url(#clip0_27_927)">
<rect width="295" height="362" rx="15" fill="#EF1D00"/>
<path d="M248.5 -1.5C248.5 26.3904 15.3905 143 -12.4999 143C-40.3903 143 -26.0001 46.3904 -26.0001 18.5C-26.0001 -9.39038 -3.39053 -32 24.4998 -32C52.3902 -32 248.5 -29.3904 248.5 -1.5Z" fill="#FF563F"/>
<path d="M324 329C324 362.137 297.137 389 264 389C230.863 389 81.5 395.137 81.5 362C-31.5 334 266.863 209 300 209C333.137 209 324 295.863 324 329Z" fill="#FF563F"/>
</g>
<defs>
<clipPath id="clip0_27_927">
<rect width="295" height="362" rx="15" fill="white"/>
</clipPath>
</defs>
</svg>
