<svg width="20" height="20" viewBox="0 0 18 18" fill="none" xmlns="http://www.w3.org/2000/svg">
<path d="M6.39742 0.157271C6.33862 0.158331 6.28131 0.175933 6.23206 0.208059C6.23206 0.208059 5.97457 0.373417 5.71236 0.62854C5.45252 0.883663 5.14897 1.23918 5.13125 1.70927C5.11944 1.99628 5.24936 2.19117 5.37338 2.40613C5.4974 2.62228 5.63795 2.83488 5.72181 2.98489C5.74544 3.02859 5.75016 3.06166 5.73362 3.12898C5.70725 3.21607 5.6661 3.29797 5.61197 3.37111C5.49267 3.53883 5.34031 3.66876 5.34031 3.66876C5.30442 3.69324 5.27402 3.72492 5.25104 3.7618C5.22807 3.79867 5.21302 3.83992 5.20685 3.88292C5.20069 3.92593 5.20355 3.96974 5.21524 4.01159C5.22694 4.05343 5.24721 4.09237 5.27478 4.12595C5.30235 4.15953 5.33661 4.187 5.37537 4.20661C5.41414 4.22622 5.45656 4.23756 5.49994 4.23988C5.54333 4.2422 5.58672 4.23547 5.62735 4.22011C5.66799 4.20475 5.70499 4.1811 5.73599 4.15066C5.73599 4.15066 5.94386 3.98057 6.12103 3.73018C6.20962 3.60498 6.29584 3.45852 6.34072 3.2778C6.39166 3.07591 6.36511 2.86226 6.26631 2.67897C6.16119 2.49118 6.023 2.2833 5.91552 2.0955C5.80803 1.9077 5.75606 1.71636 5.75606 1.73289C5.76315 1.551 5.93914 1.2817 6.14938 1.07501C6.3608 0.86949 6.56986 0.734841 6.56986 0.734841C6.62759 0.69837 6.67181 0.64402 6.69578 0.580078C6.71974 0.516136 6.72214 0.446111 6.70261 0.380679C6.68307 0.315248 6.64267 0.258 6.58757 0.217665C6.53247 0.17733 6.46569 0.15612 6.39742 0.157271ZM9.52386 0.157271C9.46425 0.157885 9.40607 0.175506 9.35614 0.208059C9.35614 0.208059 9.09747 0.373417 8.83644 0.62854C8.57423 0.883663 8.27304 1.23918 8.25533 1.70927C8.24352 1.99628 8.37344 2.19117 8.49746 2.40613C8.6203 2.62228 8.76321 2.83488 8.84825 2.98489C8.87188 3.02859 8.87306 3.06166 8.85652 3.12898C8.83112 3.21601 8.79075 3.29794 8.73723 3.37111C8.61911 3.53883 8.46202 3.66876 8.46202 3.66876C8.42685 3.69359 8.39718 3.72542 8.37487 3.76224C8.35256 3.79907 8.33808 3.8401 8.33235 3.88277C8.32662 3.92544 8.32975 3.96884 8.34156 4.01025C8.35336 4.05165 8.37358 4.09018 8.40095 4.12342C8.42832 4.15665 8.46226 4.18388 8.50063 4.20341C8.53901 4.22293 8.581 4.23433 8.62398 4.23689C8.66696 4.23944 8.71 4.2331 8.75042 4.21827C8.79084 4.20343 8.82776 4.18041 8.85888 4.15066C8.85888 4.15066 9.06912 3.98057 9.24747 3.73018C9.33606 3.60498 9.41992 3.45852 9.46362 3.2778C9.51587 3.07637 9.49058 2.86265 9.39275 2.67897C9.28645 2.49118 9.14708 2.2833 9.03841 2.0955C8.93211 1.90652 8.88014 1.71636 8.88014 1.73289C8.88723 1.551 9.06322 1.2817 9.27464 1.07501C9.48488 0.86949 9.69394 0.734841 9.69394 0.734841C9.75148 0.698472 9.7956 0.644334 9.81961 0.580633C9.84362 0.516932 9.8462 0.447141 9.82697 0.381839C9.80774 0.316537 9.76774 0.259285 9.71305 0.21876C9.65835 0.178236 9.59193 0.156649 9.52386 0.157271ZM12.6503 0.157271C12.5903 0.15766 12.5317 0.17529 12.4814 0.208059C12.4814 0.208059 12.2227 0.373417 11.9617 0.62854C11.7007 0.883663 11.3983 1.23918 11.3806 1.70927C11.3688 1.99628 11.4987 2.19117 11.6227 2.40613C11.7467 2.62228 11.8873 2.83488 11.9712 2.98489C11.996 3.02859 11.9995 3.06166 11.983 3.12898C11.9562 3.21612 11.9146 3.29802 11.8601 3.37111C11.742 3.53883 11.5885 3.66876 11.5885 3.66876C11.5533 3.69359 11.5236 3.72542 11.5013 3.76224C11.479 3.79907 11.4645 3.8401 11.4588 3.88277C11.4531 3.92544 11.4562 3.96884 11.468 4.01025C11.4798 4.05165 11.5 4.09018 11.5274 4.12342C11.5548 4.15665 11.5887 4.18388 11.6271 4.20341C11.6654 4.22293 11.7074 4.23433 11.7504 4.23689C11.7934 4.23944 11.8364 4.2331 11.8769 4.21827C11.9173 4.20343 11.9542 4.18041 11.9853 4.15066C11.9853 4.15066 12.1932 3.98057 12.3704 3.73018C12.459 3.60498 12.5464 3.45852 12.5901 3.2778C12.6422 3.07636 12.6169 2.86269 12.5192 2.67897C12.4129 2.49118 12.2735 2.2833 12.1649 2.0955C12.0574 1.90652 12.0066 1.71636 12.0054 1.73289C12.0125 1.551 12.1873 1.2817 12.3987 1.07501C12.609 0.86949 12.818 0.734841 12.818 0.734841C12.8754 0.698578 12.9194 0.644651 12.9435 0.581186C12.9675 0.517722 12.9703 0.44816 12.9514 0.382984C12.9324 0.317807 12.8928 0.260549 12.8385 0.219837C12.7842 0.179126 12.7182 0.157167 12.6503 0.157271ZM8.97463 4.7424C8.61541 4.74334 8.27119 4.88653 8.0173 5.14065C7.7634 5.39477 7.6205 5.73911 7.61988 6.09833C7.61988 6.33102 7.68012 6.55307 7.78878 6.74913C5.86052 7.0348 4.09903 8.00362 2.82516 9.4791C1.55129 10.9546 0.849809 12.8386 0.848488 14.7879C0.848488 15.1304 0.878016 15.4729 0.921718 15.8131C0.723968 15.8613 0.547988 15.9741 0.42173 16.1338C0.295473 16.2934 0.226178 16.4907 0.224854 16.6942V16.7521C0.224854 17.2493 0.633523 17.6616 1.13196 17.6616H16.8161C17.3134 17.6616 17.7256 17.2493 17.7256 16.7521V16.693C17.7237 16.4886 17.6533 16.2907 17.5257 16.131C17.3981 15.9713 17.2206 15.8589 17.0216 15.8119C17.0665 15.4729 17.0972 15.1316 17.0996 14.7891C17.0996 14.7883 17.0996 14.7875 17.0996 14.7867C17.0983 12.8374 16.3968 10.9534 15.1229 9.47792C13.8491 8.00244 12.0876 7.03362 10.1593 6.74795C10.268 6.55189 10.3282 6.32983 10.3282 6.09833C10.3273 5.73952 10.1844 5.39566 9.93079 5.14183C9.67718 4.888 9.33344 4.74365 8.97463 4.7424ZM8.97463 5.3684C9.38094 5.3684 9.70339 5.69084 9.70339 6.09715C9.70113 6.21044 9.67213 6.32159 9.61876 6.42155C9.5654 6.52151 9.48917 6.60745 9.3963 6.67236C9.11497 6.65811 8.83311 6.65811 8.55179 6.67236C8.45876 6.60733 8.38243 6.52121 8.32906 6.42103C8.27568 6.32085 8.24678 6.20946 8.2447 6.09597C8.2447 5.68966 8.56833 5.36722 8.97463 5.36722V5.3684ZM8.97463 7.28655C9.14235 7.28655 9.31007 7.29481 9.48134 7.30544C9.48527 7.30552 9.48921 7.30552 9.49315 7.30544C11.3879 7.43565 13.1626 8.28042 14.4584 9.66896C15.7542 11.0575 16.4745 12.8863 16.4736 14.7855C16.4658 15.1198 16.4358 15.4532 16.3838 15.7836H1.55953C1.509 15.4535 1.48059 15.1205 1.47448 14.7867C1.47331 12.8872 2.19344 11.0582 3.48927 9.6694C4.7851 8.2806 6.55995 7.43567 8.45494 7.30544C8.45887 7.30552 8.46281 7.30552 8.46675 7.30544C8.63578 7.29331 8.80517 7.287 8.97463 7.28655ZM8.97463 7.9716C8.89162 7.9716 8.81201 8.00457 8.75331 8.06327C8.69461 8.12197 8.66164 8.20158 8.66164 8.2846C8.66164 8.36761 8.69461 8.44722 8.75331 8.50592C8.81201 8.56462 8.89162 8.5976 8.97463 8.5976C9.71756 8.5976 10.4227 8.75114 11.0617 9.02752C12.4153 9.61454 13.835 10.7957 14.3039 12.1374C14.3159 12.178 14.336 12.2158 14.363 12.2484C14.3901 12.281 14.4234 12.3078 14.4611 12.3271C14.4988 12.3464 14.54 12.3579 14.5822 12.3608C14.6245 12.3638 14.6669 12.3581 14.7069 12.3442C14.7469 12.3303 14.7836 12.3084 14.8149 12.2799C14.8462 12.2513 14.8714 12.2168 14.8889 12.1782C14.9064 12.1397 14.916 12.098 14.9169 12.0556C14.9179 12.0133 14.9102 11.9712 14.8944 11.9319C14.3358 10.3374 12.792 9.09721 11.3109 8.45468C10.5941 8.1472 9.82311 7.98578 9.04314 7.97987C9.02063 7.97499 8.99766 7.97143 8.97463 7.9716ZM1.13196 16.4096H1.26188C1.26582 16.4096 1.26976 16.4096 1.27369 16.4096H16.6673C16.6712 16.4096 16.6752 16.4096 16.6791 16.4096H16.8161C16.9779 16.4096 17.0996 16.5312 17.0996 16.693V16.7509C17.0996 16.9127 16.9779 17.0344 16.8161 17.0344H1.13078C1.09344 17.0352 1.05632 17.0284 1.02169 17.0144C0.987057 17.0004 0.955635 16.9795 0.929335 16.953C0.903036 16.9265 0.88241 16.8949 0.868714 16.8602C0.855018 16.8254 0.848538 16.7882 0.849669 16.7509V16.6918C0.849669 16.5312 0.968963 16.4096 1.13196 16.4096Z" fill="white"/>
</svg>
