<svg width="8" height="11" viewBox="0 0 8 11" fill="none" xmlns="http://www.w3.org/2000/svg">
<path d="M4.96875 0.34375H2.625C2.50068 0.34375 2.38145 0.393136 2.29354 0.481044C2.20564 0.568951 2.15625 0.68818 2.15625 0.8125V5.03125H1.21875C1.09443 5.03125 0.975201 5.08064 0.887294 5.16854C0.799386 5.25645 0.75 5.37568 0.75 5.5C0.75 5.62432 0.799386 5.74355 0.887294 5.83146C0.975201 5.91936 1.09443 5.96875 1.21875 5.96875H2.15625V7.375H1.21875C1.09443 7.375 0.975201 7.42439 0.887294 7.51229C0.799386 7.6002 0.75 7.71943 0.75 7.84375C0.75 7.96807 0.799386 8.0873 0.887294 8.17521C0.975201 8.26311 1.09443 8.3125 1.21875 8.3125H2.15625V10.1875C2.15625 10.3118 2.20564 10.431 2.29354 10.519C2.38145 10.6069 2.50068 10.6562 2.625 10.6562C2.74932 10.6562 2.86855 10.6069 2.95646 10.519C3.04436 10.431 3.09375 10.3118 3.09375 10.1875V8.3125H4.5C4.62432 8.3125 4.74355 8.26311 4.83146 8.17521C4.91936 8.0873 4.96875 7.96807 4.96875 7.84375C4.96875 7.71943 4.91936 7.6002 4.83146 7.51229C4.74355 7.42439 4.62432 7.375 4.5 7.375H3.09375V5.96875H4.96875C5.71467 5.96875 6.43004 5.67243 6.95749 5.14499C7.48493 4.61754 7.78125 3.90217 7.78125 3.15625C7.78125 2.41033 7.48493 1.69496 6.95749 1.16751C6.43004 0.640066 5.71467 0.34375 4.96875 0.34375ZM4.96875 5.03125H3.09375V1.28125H4.96875C5.46603 1.28125 5.94294 1.47879 6.29457 1.83042C6.64621 2.18206 6.84375 2.65897 6.84375 3.15625C6.84375 3.65353 6.64621 4.13044 6.29457 4.48208C5.94294 4.83371 5.46603 5.03125 4.96875 5.03125Z" fill="#1E1E1E"/>
</svg>
