<svg width="202" height="211" viewBox="0 0 202 211" fill="none" xmlns="http://www.w3.org/2000/svg">
<path fill-rule="evenodd" clip-rule="evenodd" d="M106.154 23.0466C91.7849 18.698 80.7074 -3.01084 66.1897 0.352402C52.3503 3.55849 46.4699 25.6195 36.763 39.122C24.0254 56.8402 0.888611 67.9088 0.02211 92.3927C-0.831772 116.52 23.2909 128.13 32.8871 148.639C42.0646 168.253 38.3313 203.861 55.0708 210.041C73.776 216.945 87.9414 184.62 106.154 175.685C116.828 170.448 127.957 169.987 139.295 168.719C160.119 166.391 192.597 190.62 200.858 165.097C209.698 137.786 164.315 122.123 164.001 92.3927C163.694 63.3743 209.267 46.7008 199.332 20.8602C189.685 -4.23337 158.026 21.2353 136.835 21.7326C126.427 21.9768 116.304 26.1184 106.154 23.0466Z" fill="#580BE4"/>
</svg>
